<!DOCTYPE svg PUBLIC "-//W3C//DTD SVG 1.1//EN" "http://www.w3.org/Graphics/SVG/1.1/DTD/svg11.dtd">
<!-- Uploaded to: SVG Repo, www.svgrepo.com, Transformed by: SVG Repo Mixer Tools -->
<svg version="1.1" id="Layer_1" xmlns="http://www.w3.org/2000/svg" xmlns:xlink="http://www.w3.org/1999/xlink" viewBox="0 0 512 512" xml:space="preserve" width="800px" height="800px" fill="#ff844b">
<g id="SVGRepo_bgCarrier" stroke-width="0"/>
<g id="SVGRepo_tracerCarrier" stroke-linecap="round" stroke-linejoin="round"/>
<g id="SVGRepo_iconCarrier"> <path d="M256,0C114.616,0,0,114.616,0,256s114.616,256,256,256s256-114.616,256-256S397.384,0,256,0z"/> <polygon style="fill:#FFFFFF;" points="124.504,80 124.504,432 176.888,387.84 219.592,422.28 263.656,387.84 305.728,427.952 348.904,387.84 387.496,432 387.496,80 "/> <g> <rect x="184.48" y="301.448" style="fill:#0a0d25;" width="143" height="11"/> <rect x="184.48" y="334.216" style="fill:#0a0d25;" width="143" height="11"/> </g> <polygon style="fill:#2f6684;" points="192.496,211.24 256,273.808 319.504,211.24 292.248,211.24 292.248,125.728 219.752,125.728 219.752,211.24 "/> </g>
</svg>